<?xml version="1.0" encoding="UTF-8"?>
<svg id="Camada_1" data-name="Camada 1" xmlns="http://www.w3.org/2000/svg" xmlns:xlink="http://www.w3.org/1999/xlink" viewBox="0 0 1057.75 590.66">
  <defs>
    <style>
      .cls-1 {
        fill: #fff;
      }

      .cls-1, .cls-2 {
        fill-rule: evenodd;
      }

      .cls-3 {
        fill: none;
      }

      .cls-2 {
        fill: #e30a18;
      }

      .cls-4 {
        clip-path: url(#clippath);
      }
    </style>
    <clipPath id="clippath">
      <rect class="cls-3" width="1057.75" height="590.66"/>
    </clipPath>
  </defs>
  <g class="cls-4">
    <path class="cls-1" d="M544.66,564.48c-29.23,2.48-58.44-2.97-82.27-15.33L64.5,347.45c-25.07-12.75-39.44-32.29-39.43-53.63.01-21.19,14.28-40.58,39.15-53.19L457.3,42.01c16.69-8.64,36.16-14.11,56.33-15.81,29.38-2.49,58.44,2.98,81.85,15.39l397.64,202.33c24.95,12.2,39.36,31.36,39.55,52.59.18,21.3-14.08,40.81-39.13,53.53l-393.02,198.59c-16.4,8.67-35.71,14.15-55.87,15.86"/>
    <path class="cls-2" d="M74.46,260.8L467.62,62.14c35.39-18.37,83.48-18.57,117.42-.48l397.98,202.5c35.52,17.28,36.42,47.35.27,65.71l-393.18,198.67c-34.58,18.36-82.66,18.55-117.4.48L74.74,327.27c-35.54-18.07-36.45-48.13-.27-66.47"/>
    <polygon class="cls-1" points="184.42 362.46 296.52 418.96 295.49 169.66 183.85 224.73 184.42 362.46"/>
    <path class="cls-1" d="M631.29,389.87l-1.17-282.49c-33.92-17.29-66.33-39.32-105.74-39.16l1.88,455.02c50.44-.21,107.01-39.2,146.3-59.14-.09-22.95.6-51.47-.29-70.45-9.53-23.69-24.38,6.44-40.98-3.79"/>
    <path class="cls-1" d="M505.15,179.1l-2.02-108.39c-64.53,20.82-128.99,59.05-188.72,91.78l.38,92.56c8.88,52.21,91.63,56.59,86.31,104.91-5.31,49.08-54.39-6.91-85.88.35l.27,66.49,165.81,83.96c7.88,3.92,16.57,7.07,25.26,9.42-.32-77.58-.55-132.99-.8-194.69-22.97-30.76-109.75-57.3-100.46-91.38,10.1-34.08,86.59-26.48,99.86-55.02"/>
    <path class="cls-1" d="M787.25,185.05l-98.7-50.23,1.33,322.08,77.85-39.1-.28-68.84,20.49,1.49,25.22.67.18,43.55,79.44-35.14-.5-121.1-105.02-53.39ZM808.18,285.47c-3.14,6.35-11.77,10.34-20.48,8.78-2.36-.77-4.72-1.55-7.08-2.33-11.04-4.72-17.4-15.77-14.3-23.69,3.15-7.15,11.79-10.33,21.23-8.78,1.58,0,3.93.76,6.34,1.53,11.04,4.71,18.19,15.78,14.28,24.49"/>
  </g>
</svg>