<?xml version="1.0" encoding="UTF-8" standalone="no"?>
<!-- Created with Inkscape (http://www.inkscape.org/) -->

<svg
   width="1280"
   height="720"
   viewBox="0 0 338.66664 190.49999"
   version="1.1"
   id="svg1"
   sodipodi:docname="SVG_painel_Operacional.svg"
   inkscape:version="1.4.2 (f4327f4, 2025-05-13)"
   xmlns:inkscape="http://www.inkscape.org/namespaces/inkscape"
   xmlns:sodipodi="http://sodipodi.sourceforge.net/DTD/sodipodi-0.dtd"
   xmlns="http://www.w3.org/2000/svg"
   xmlns:svg="http://www.w3.org/2000/svg">
  <sodipodi:namedview
     id="namedview1"
     pagecolor="#505050"
     bordercolor="#eeeeee"
     borderopacity="1"
     inkscape:showpageshadow="0"
     inkscape:pageopacity="0"
     inkscape:pagecheckerboard="0"
     inkscape:deskcolor="#505050"
     inkscape:document-units="mm"
     showguides="true"
     inkscape:zoom="0.70710678"
     inkscape:cx="653.36667"
     inkscape:cy="543.76512"
     inkscape:window-width="1920"
     inkscape:window-height="1057"
     inkscape:window-x="-8"
     inkscape:window-y="829"
     inkscape:window-maximized="1"
     inkscape:current-layer="layer1">
    <sodipodi:guide
       position="185.34061,63.963017"
       orientation="0,-1"
       id="guide1"
       inkscape:locked="false" />
    <sodipodi:guide
       position="286.47758,122.09993"
       orientation="0,-1"
       id="guide2"
       inkscape:locked="false" />
    <sodipodi:guide
       position="172.04907,148.919"
       orientation="1,0"
       id="guide3"
       inkscape:locked="false" />
    <sodipodi:guide
       position="183.22395,116.87968"
       orientation="1,0"
       id="guide4"
       inkscape:locked="false" />
    <sodipodi:guide
       position="242.43627,99.94908"
       orientation="1,0"
       id="guide5"
       inkscape:locked="false" />
    <sodipodi:guide
       position="195.26248,135.46666"
       orientation="0,-1"
       id="guide6"
       inkscape:locked="false" />
    <sodipodi:guide
       position="288.63102,108.69333"
       orientation="0,-1"
       id="guide8"
       inkscape:locked="false" />
    <sodipodi:guide
       position="275.86222,105.65528"
       orientation="0,-1"
       id="guide9"
       inkscape:locked="false" />
    <sodipodi:guide
       position="275.16064,94.850913"
       orientation="0,-1"
       id="guide10"
       inkscape:locked="false" />
    <sodipodi:guide
       position="294.19691,159.12993"
       orientation="1,0"
       id="guide11"
       inkscape:locked="false" />
    <sodipodi:guide
       position="255.60402,106.34596"
       orientation="1,0"
       id="guide12"
       inkscape:locked="false" />
    <sodipodi:guide
       position="318.31879,124.56594"
       orientation="1,0"
       id="guide13"
       inkscape:locked="false" />
    <sodipodi:guide
       position="218.54582,61.459988"
       orientation="0,-1"
       id="guide14"
       inkscape:locked="false" />
    <sodipodi:guide
       position="21.05214,99.76199"
       orientation="1,0"
       id="guide15"
       inkscape:locked="false" />
    <sodipodi:guide
       position="85.88869,90.126924"
       orientation="1,0"
       id="guide16"
       inkscape:locked="false" />
    <sodipodi:guide
       position="119.55872,93.558702"
       orientation="1,0"
       id="guide17"
       inkscape:locked="false" />
    <sodipodi:guide
       position="133.62343,79.832615"
       orientation="1,0"
       id="guide19"
       inkscape:locked="false" />
    <sodipodi:guide
       position="298.12577,111.30761"
       orientation="0,-1"
       id="guide20"
       inkscape:locked="false" />
    <sodipodi:guide
       position="291.96769,79.816023"
       orientation="0,-1"
       id="guide21"
       inkscape:locked="false" />
  </sodipodi:namedview>
  <defs
     id="defs1" />
  <g
     inkscape:label="Camada 1"
     inkscape:groupmode="layer"
     id="layer1">
    <g
       id="btn_entrar-1"
       class="btn"
       transform="matrix(1.0847858,0,0,1.2760387,38.783497,-26.722853)"
       style="fill:#b2b2b2;fill-opacity:1">
      <rect
         style="fill:#b2b2b2;fill-opacity:1;stroke-width:0.327085;stroke-linejoin:round"
         id="btn_entrar_background-3"
         width="26.865944"
         height="15.445862"
         x="232.12743"
         y="45.787342"
         rx="1.6782898" />
    </g>
    <rect
       style="fill:#666666;fill-opacity:1;stroke:#666666;stroke-width:0.123328;stroke-linejoin:round;stroke-opacity:1"
       id="rect18"
       width="36.180733"
       height="122.88644"
       x="2.9617755"
       y="30.682199"
       rx="4.3945537"
       ry="5.5562482" />
    <circle
       style="fill:#808080;fill-opacity:1;stroke-width:1.88976;stroke-linejoin:round"
       id="path4"
       cx="0"
       cy="0"
       r="0"
       transform="scale(0.26458333)" />
    <path
       d="m 229.55117,148.81891 c -0.006,-0.0142 -0.009,-0.0291 -0.009,-0.0452 0,-0.0162 0.003,-0.0313 0.009,-0.0452 0.006,-0.0142 0.0145,-0.0267 0.026,-0.0382 v 0 l 2e-5,-5e-5 v 0 c 0.0114,-0.0114 0.0243,-0.0202 0.0382,-0.026 0.0142,-0.006 0.0291,-0.009 0.0453,-0.009 0.0162,0 0.0314,0.003 0.0455,0.009 0.0142,0.006 0.0263,0.0142 0.0377,0.0254 2.1e-4,2.3e-4 4.5e-4,3.8e-4 5.9e-4,5.7e-4 0.0114,0.0114 0.0202,0.0243 0.026,0.0382 0.006,0.0142 0.009,0.0291 0.009,0.0452 0,0.0161 -0.003,0.0313 -0.009,0.0452 -0.006,0.0142 -0.0145,0.0267 -0.026,0.0382 -0.0114,0.0114 -0.0244,0.0203 -0.0385,0.0263 -0.0142,0.006 -0.0291,0.009 -0.0453,0.009 -0.0161,0 -0.0313,-0.003 -0.0452,-0.009 -0.0142,-0.006 -0.0263,-0.0144 -0.0376,-0.0256 -2.2e-4,-2.2e-4 -4.6e-4,-4.6e-4 -6.9e-4,-6.4e-4 -0.0114,-0.0114 -0.0202,-0.0243 -0.026,-0.0382 z m 0.10955,-2.31239 c -0.10699,0 -0.2109,0.01 -0.31142,0.0303 -0.1006,0.0202 -0.19779,0.0502 -0.29124,0.0901 l 3e-5,10e-5 c -0.0951,0.0409 -0.18346,0.0887 -0.26523,0.14353 -0.082,0.055 -0.15795,0.11751 -0.22778,0.18756 l -2.9e-4,2.7e-4 v 0 c -0.0701,0.0699 -0.13257,0.14582 -0.18755,0.22778 -0.0549,0.0818 -0.10259,0.17023 -0.14352,0.26523 -5e-4,0.001 -0.001,0.003 -0.001,0.003 -0.0392,0.0924 -0.0688,0.18841 -0.0887,0.28783 -0.0202,0.1006 -0.0303,0.20436 -0.0303,0.3114 0,0.10713 0.01,0.2109 0.0303,0.31142 0.0202,0.1006 0.0502,0.19779 0.0901,0.29125 l 7e-5,-6e-5 c 0.0409,0.0951 0.0887,0.18347 0.14353,0.26524 0.055,0.082 0.11751,0.15794 0.18756,0.22775 l 2.7e-4,2.8e-4 v 0 c 0.0699,0.0702 0.14582,0.13257 0.22779,0.18759 0.0817,0.0548 0.17023,0.10258 0.26523,0.14349 0.001,5e-4 0.003,0.001 0.003,0.001 0.0924,0.0392 0.1884,0.0688 0.28782,0.0887 0.1006,0.0202 0.20436,0.0301 0.31144,0.0301 0.10713,0 0.2109,-0.01 0.3114,-0.0301 0.1006,-0.0202 0.19775,-0.0502 0.29126,-0.0901 l -5e-5,-1.1e-4 c 0.095,-0.0409 0.18346,-0.0887 0.26523,-0.1435 0.0818,-0.055 0.15791,-0.1175 0.22776,-0.18758 l 2.7e-4,-2.9e-4 v 0 c 0.0701,-0.0698 0.13257,-0.1458 0.18753,-0.22775 0.0548,-0.0818 0.10273,-0.17023 0.14356,-0.26523 4.9e-4,-0.001 9.7e-4,-0.003 10e-4,-0.003 0.0392,-0.0924 0.0688,-0.18847 0.0887,-0.28785 0.0202,-0.1006 0.0303,-0.20437 0.0303,-0.31143 0,-0.10699 -0.01,-0.21087 -0.0303,-0.31141 -0.0202,-0.1006 -0.0502,-0.19776 -0.0901,-0.29124 l -7e-5,3e-5 c -0.0409,-0.0951 -0.0887,-0.18346 -0.14356,-0.26523 -0.055,-0.082 -0.11751,-0.15792 -0.18753,-0.22778 l -2.7e-4,-2.9e-4 v 0 c -0.0699,-0.07 -0.14585,-0.13256 -0.22775,-0.18755 -0.0818,-0.0548 -0.17023,-0.10273 -0.26523,-0.14352 -0.001,-5e-4 -0.003,-0.001 -0.003,-0.001 -0.0924,-0.0392 -0.18841,-0.0688 -0.28783,-0.0887 -0.10045,-0.0202 -0.20433,-0.0303 -0.3114,-0.0303 z m -0.33913,-0.10912 c 0.10969,-0.022 0.22283,-0.033 0.33913,-0.033 0.11623,0 0.22939,0.0114 0.33915,0.033 0.10827,0.0217 0.21348,0.0541 0.31566,0.0976 0.001,4.9e-4 0.003,9.4e-4 0.004,0.001 0.10188,0.0439 0.19793,0.0959 0.28798,0.1563 0.0898,0.0602 0.17284,0.12859 0.24915,0.20503 l 2.7e-4,2.8e-4 c 0.0764,0.0763 0.1448,0.15937 0.20502,0.24914 0.0604,0.0901 0.11239,0.18608 0.15628,0.28798 l -7e-5,3e-5 7e-5,2.4e-4 c 0.0442,0.1033 0.0772,0.20973 0.099,0.31921 0.022,0.10984 0.033,0.22282 0.033,0.33914 0,0.11636 -0.0114,0.22944 -0.033,0.33914 -0.0217,0.10827 -0.0543,0.21349 -0.0976,0.31566 -5e-4,0.001 -9.4e-4,0.003 -0.001,0.004 -0.0438,0.10188 -0.0958,0.1979 -0.15628,0.28797 -0.0602,0.0898 -0.12859,0.17282 -0.20502,0.24915 l -2.8e-4,2.7e-4 c -0.0763,0.0766 -0.15937,0.1448 -0.24914,0.20505 -0.0901,0.0604 -0.1861,0.11239 -0.28798,0.15629 l -6e-5,-1.1e-4 -2.4e-4,1.1e-4 c -0.10329,0.0442 -0.20973,0.0772 -0.3192,0.099 -0.10983,0.022 -0.22283,0.033 -0.33914,0.033 -0.11637,0 -0.22942,-0.0114 -0.33915,-0.033 -0.10813,-0.0217 -0.21346,-0.0541 -0.31566,-0.0976 -0.001,-4.8e-4 -0.003,-9.4e-4 -0.004,-0.001 -0.10188,-0.0438 -0.19793,-0.0959 -0.28797,-0.15629 -0.0898,-0.0602 -0.17285,-0.12859 -0.24912,-0.20505 l -2.8e-4,-2.7e-4 c -0.0764,-0.0763 -0.14479,-0.15941 -0.20504,-0.24915 -0.0604,-0.0901 -0.11239,-0.18609 -0.15629,-0.28797 l 1.1e-4,-5e-5 -1.1e-4,-2.9e-4 c -0.0442,-0.10329 -0.0771,-0.2097 -0.099,-0.31919 -0.0219,-0.10984 -0.033,-0.22287 -0.033,-0.33921 0,-0.11623 0.0114,-0.22937 0.033,-0.33915 0.0217,-0.10827 0.0543,-0.21345 0.0976,-0.31563 4.8e-4,-0.001 9.6e-4,-0.003 10e-4,-0.004 0.0439,-0.10188 0.0959,-0.19794 0.15629,-0.28797 0.0602,-0.0898 0.12845,-0.17285 0.20505,-0.24915 l 2.7e-4,-2.7e-4 c 0.0763,-0.0766 0.15936,-0.1448 0.24912,-0.20504 0.0901,-0.0604 0.18609,-0.11239 0.28797,-0.1563 l 5e-5,9e-5 2.2e-4,-9e-5 c 0.1033,-0.044 0.20977,-0.0771 0.31924,-0.099 z m 0.41248,2.10682 c -1.5e-4,0.0279 -0.0197,0.0453 -0.0448,0.0529 -0.009,0.003 -0.0189,0.004 -0.0286,0.004 -0.01,0 -0.0195,-10e-4 -0.0286,-0.004 -0.025,-0.007 -0.0446,-0.025 -0.0448,-0.0529 l -0.0939,-1.22853 c -2e-5,-2.7e-4 -2e-5,-5.6e-4 -2e-5,-8.6e-4 h -3e-5 c 0,-0.0301 0.0447,-0.0483 0.10216,-0.0556 0.0206,-0.003 0.0429,-0.004 0.0652,-0.004 0.0223,0 0.0446,0.001 0.0652,0.004 0.0574,0.007 0.10216,0.0254 0.10216,0.0556 0,4.9e-4 -5e-5,9.8e-4 -1.1e-4,0.001 z"
       id="path1"
       style="fill:#cccccc;fill-opacity:1;stroke-width:0.0274966" />
    <rect
       style="fill:#f2f2f2;fill-opacity:1;stroke-width:0.689959;stroke-linejoin:round"
       id="display_manutencao"
       width="107.81903"
       height="17.125414"
       x="211.91679"
       y="136.80295"
       rx="3.8230016"
       ry="3.4774258" />
    <rect
       style="fill:#fbfbfb;fill-opacity:0.142857;stroke-width:0.45633;stroke-linejoin:round"
       id="display_manutencao-4"
       width="47.744118"
       height="16.917206"
       x="57.21846"
       y="136.96442"
       rx="1.6928906"
       ry="3.4351475" />
    <rect
       style="fill:#fbfbfb;fill-opacity:0.142857;stroke-width:0.45633;stroke-linejoin:round"
       id="display_manutencao-4-3"
       width="47.744118"
       height="16.917206"
       x="108.72189"
       y="136.96442"
       rx="1.6928906"
       ry="3.4351475" />
    <rect
       style="fill:#fbfbfb;fill-opacity:0.142857;stroke-width:0.45633;stroke-linejoin:round"
       id="display_manutencao-4-3-1"
       width="47.744118"
       height="16.917206"
       x="160.22534"
       y="136.96442"
       rx="1.6928906"
       ry="3.4351475" />
    <g
       id="display_produzidos"
       transform="matrix(1.0847858,0,0,0.99354818,30.512825,8.910207)"
       style="fill:#f2f2f2;fill-opacity:1">
      <rect
         style="fill:#f2f2f2;fill-opacity:1;stroke-width:1.16522;stroke-linejoin:round"
         id="env_produzidos"
         width="66.834152"
         height="78.797142"
         x="24.701029"
         y="46.408939"
         rx="2.5245523" />
    </g>
    <g
       id="env_min"
       transform="matrix(1.1424285,0,0,0.44178697,1.2026969,78.565019)"
       style="fill:#f2f2f2;fill-opacity:1">
      <rect
         style="fill:#f2f2f2;fill-opacity:1;stroke-width:0.681086;stroke-linejoin:round"
         id="env_minuto_background"
         width="45.464642"
         height="39.57534"
         x="184.47751"
         y="84.324638"
         rx="2.392189"
         ry="6.6188235" />
    </g>
    <g
       id="env_min-7"
       transform="matrix(1.1424285,0,0,1.9790184,57.043367,-111.86828)"
       style="fill:#b2b2b2;fill-opacity:1">
      <rect
         style="fill:#b2b2b2;fill-opacity:1;stroke-width:0.681086;stroke-linejoin:round"
         id="env_minuto_background-6"
         width="45.464642"
         height="39.57534"
         x="184.47751"
         y="84.324638"
         rx="2.3921909" />
    </g>
    <rect
       style="fill:#f2f2f2;fill-opacity:1;stroke-width:0.879347;stroke-linejoin:round"
       id="bar_progressao"
       width="38.42564"
       height="78.053787"
       x="133.62344"
       y="55.033333"
       rx="4.5637946" />
    <g
       id="display_numerico"
       transform="matrix(1.0380267,0,0,0.96819735,35.767024,9.7896105)">
      <rect
         style="fill:#666666;fill-opacity:1;stroke-width:0.441102;stroke-linejoin:round"
         id="display_num_background"
         width="37.012009"
         height="20.390436"
         x="94.277534"
         y="22.640427"
         rx="2.9079523" />
    </g>
    <g
       id="notificacao"
       transform="matrix(0.88898955,0,0,0.96660597,57.084416,9.6970211)"
       style="fill:#f2f2f2;fill-opacity:1">
      <rect
         style="fill:#f2f2f2;fill-opacity:1;stroke-width:0.692407;stroke-linejoin:round"
         id="display_notificacao"
         width="125.35505"
         height="20.390436"
         x="133.55038"
         y="22.766823"
         rx="3.2489593" />
      <text
         id="texto_notificacao"
         x="196.22701"
         y="32.962002"
         font-family="Arial, sans-serif"
         font-size="9px"
         font-weight="bold"
         text-anchor="middle"
         dominant-baseline="middle"
         fill="#28a745"
         style="fill:#f2f2f2;fill-opacity:1" />
    </g>
    <rect
       style="fill:#b2b2b2;fill-opacity:1;stroke:none;stroke-width:0.272414;stroke-linejoin:round"
       id="rect5-9-1"
       width="24.582596"
       height="19.314583"
       x="8.7608433"
       y="41.886238"
       rx="3.6812217"
       ry="3.8267" />
    <rect
       style="fill:#f2f2f2;fill-opacity:1;stroke-width:0.456134;stroke-linejoin:round"
       id="op_input_background"
       width="51.824337"
       height="15.571924"
       x="211.91679"
       y="55.011742"
       rx="3.237417" />
    <rect
       style="fill:#f2f2f2;fill-opacity:1;stroke-width:0.453075;stroke-linejoin:round"
       id="quebra_input"
       width="51.923321"
       height="15.334458"
       x="211.94907"
       y="74.08754"
       rx="3.3018348" />
    <text
       xml:space="preserve"
       style="font-size:4.93889px;font-family:Arial;-inkscape-font-specification:Arial;text-align:start;writing-mode:lr-tb;direction:ltr;text-anchor:start;fill:#cccccc;fill-opacity:1;stroke-width:0.51908;stroke-linejoin:round"
       x="174.96132"
       y="66.10144"
       id="text2-1-7"
       transform="scale(1.0449068,0.95702316)"><tspan
         sodipodi:role="line"
         id="tspan2-0-1"
         style="font-size:4.93889px;fill:#808080;fill-opacity:1;stroke-width:0.519081"
         x="174.96132"
         y="66.10144">Requisição</tspan></text>
    <text
       xml:space="preserve"
       style="font-size:4.93889px;font-family:Arial;-inkscape-font-specification:Arial;text-align:start;writing-mode:lr-tb;direction:ltr;text-anchor:start;fill:#cccccc;fill-opacity:1;stroke-width:0.51908;stroke-linejoin:round"
       x="175.13736"
       y="86.899651"
       id="text2-1-7-1"
       transform="scale(1.0449068,0.95702316)"><tspan
         sodipodi:role="line"
         id="tspan2-0-1-9"
         style="font-size:4.93889px;fill:#808080;fill-opacity:1;stroke-width:0.519081"
         x="175.13736"
         y="86.899651">Quantidade</tspan></text>
    <text
       xml:space="preserve"
       style="font-size:4.01px;font-family:Arial;-inkscape-font-specification:Arial;text-align:start;writing-mode:lr-tb;direction:ltr;text-anchor:start;fill:#b2b2b2;fill-opacity:1;stroke-width:0.51908;stroke-linejoin:round"
       x="211.26463"
       y="148.7942"
       id="text2-1-7-8"
       transform="scale(1.0449068,0.95702316)"><tspan
         sodipodi:role="line"
         id="tspan2-0-1-2"
         style="font-size:4.01px;fill:#b2b2b2;fill-opacity:1;stroke-width:0.519081"
         x="211.26463"
         y="148.7942">Manutenção</tspan></text>
    <text
       xml:space="preserve"
       style="font-size:7.32483px;font-family:Arial;-inkscape-font-specification:Arial;text-align:start;writing-mode:lr-tb;direction:ltr;text-anchor:start;fill:#cccccc;fill-opacity:1;stroke-width:0.51908;stroke-linejoin:round"
       x="58.416443"
       y="67.778648"
       id="text2-1-8"
       transform="scale(1.0449068,0.95702316)"><tspan
         sodipodi:role="line"
         style="font-size:7.32483px;fill:#808080;fill-opacity:1;stroke-width:0.519081"
         x="58.416443"
         y="67.778648"
         id="tspan21">Contador/Env</tspan></text>
    <rect
       style="fill:#cccccc;fill-opacity:1;stroke-width:0.405783;stroke-linejoin:round"
       id="rect3"
       width="6.6885533"
       height="1.4236488"
       x="168.3954"
       y="57.538055"
       rx="0"
       ry="0" />
    <rect
       style="fill:#cccccc;fill-opacity:1;stroke-width:0.405783;stroke-linejoin:round"
       id="rect3-6"
       width="6.6885533"
       height="1.4236488"
       x="168.80557"
       y="128.99805"
       rx="0"
       ry="0" />
    <rect
       style="fill:#cccccc;fill-opacity:1;stroke-width:0.342421;stroke-linejoin:round"
       id="rect3-6-8"
       width="4.762836"
       height="1.4236488"
       x="170.22998"
       y="92.672607"
       rx="0"
       ry="0" />
    <text
       xml:space="preserve"
       style="font-size:10.9872px;font-family:Arial;-inkscape-font-specification:Arial;text-align:start;writing-mode:lr-tb;direction:ltr;text-anchor:start;fill:#f2f2f2;fill-opacity:1;stroke-width:0.51908;stroke-linejoin:round"
       x="165.45134"
       y="139.14496"
       id="text5"
       transform="scale(1.0449068,0.95702316)"><tspan
         sodipodi:role="line"
         id="tspan3"
         style="fill:#f2f2f2;fill-opacity:1;stroke-width:0.519081"
         x="165.45134"
         y="139.14496">0</tspan></text>
    <text
       xml:space="preserve"
       style="font-size:10.9872px;font-family:Arial;-inkscape-font-specification:Arial;text-align:start;writing-mode:lr-tb;direction:ltr;text-anchor:start;fill:#f2f2f2;fill-opacity:1;stroke-width:0.51908;stroke-linejoin:round"
       x="165.60498"
       y="65.512733"
       id="text3-1"
       transform="scale(1.0449068,0.95702316)"><tspan
         sodipodi:role="line"
         id="tspan3-2"
         style="fill:#f2f2f2;fill-opacity:1;stroke-width:0.519081"
         x="165.60498"
         y="65.512733">#</tspan></text>
    <text
       xml:space="preserve"
       style="font-size:13.3694px;font-family:Arial;-inkscape-font-specification:Arial;text-align:start;writing-mode:lr-tb;direction:ltr;text-anchor:start;fill:#f2f2f2;fill-opacity:1;stroke-width:0.473719;stroke-linejoin:round"
       x="57.674213"
       y="48.909782"
       id="text6"
       transform="scale(1.0495275,0.95280972)"><tspan
         sodipodi:role="line"
         id="tspan4"
         style="font-size:13.3694px;fill:#f2f2f2;fill-opacity:1;stroke-width:0.47372"
         x="57.674213"
         y="48.909782">MÁQUINA</tspan></text>
    <rect
       style="fill:#666666;fill-opacity:1;stroke:none;stroke-width:0.706009;stroke-linejoin:round"
       id="rect5-9-6"
       width="165.11609"
       height="19.314583"
       x="42.187107"
       y="-19.397406"
       rx="1.6803854"
       ry="1.7100346" />
    <text
       xml:space="preserve"
       style="font-size:14.1111px;font-family:Arial;-inkscape-font-specification:Arial;text-align:start;writing-mode:lr-tb;direction:ltr;text-anchor:start;fill:#f2f2f2;fill-opacity:1;stroke-width:0.499999;stroke-linejoin:round"
       x="46.995564"
       y="-4.8613505"
       id="text7"><tspan
         sodipodi:role="line"
         id="tspan5"
         style="font-size:14.1111px;fill:#ffffff;fill-opacity:1;stroke-width:0.5"
         x="46.995564"
         y="-4.8613505">PAINEL OPERACIONAL</tspan></text>
    <path
       d="m 180.3212,37.632772 c -0.01,-0.02448 -0.0153,-0.05067 -0.0153,-0.07872 0,-0.02815 0.006,-0.0544 0.0153,-0.07877 0.01,-0.02424 0.0262,-0.04636 0.0469,-0.06648 v 0 l 2e-5,-9.7e-5 v 0 c 0.0205,-0.02003 0.0438,-0.03514 0.0688,-0.04524 0.0256,-0.01009 0.0524,-0.01533 0.0815,-0.01533 0.0291,0 0.0565,0.005 0.0819,0.01533 0.0256,0.0099 0.0473,0.02472 0.0678,0.04423 3.8e-4,3.97e-4 8.3e-4,6.55e-4 0.001,9.81e-4 0.0205,0.02004 0.0364,0.04226 0.0469,0.06658 0.01,0.02448 0.0153,0.0507 0.0153,0.07877 0,0.02805 -0.006,0.05433 -0.0153,0.07872 -0.01,0.02424 -0.0261,0.04648 -0.0469,0.06658 -0.0205,0.02002 -0.044,0.03541 -0.0693,0.04561 -0.0256,0.01009 -0.0524,0.01533 -0.0817,0.01533 -0.029,0 -0.0561,-0.0053 -0.0814,-0.01533 -0.0256,-0.0099 -0.0473,-0.02488 -0.0678,-0.04452 -3.7e-4,-3.69e-4 -8.1e-4,-7.86e-4 -0.001,-0.0011 -0.0205,-0.02003 -0.0364,-0.04226 -0.0469,-0.06658 z m 0.19735,-4.024825 c -0.193,0 -0.37991,0.01755 -0.561,0.05256 -0.18124,0.03501 -0.35631,0.08734 -0.52465,0.156845 l 5e-5,1.89e-4 c -0.17125,0.07113 -0.3305,0.154297 -0.4778,0.249827 -0.1477,0.09571 -0.28451,0.204402 -0.41033,0.326449 l -5.1e-4,4.77e-4 v 0 c -0.12617,0.121598 -0.23881,0.253796 -0.33786,0.396468 -0.0987,0.142325 -0.18481,0.296295 -0.25855,0.46165 -9e-4,0.002 -0.003,0.004 -0.003,0.006 -0.0706,0.16085 -0.1239,0.327932 -0.15972,0.500991 -0.0364,0.174973 -0.0546,0.355692 -0.0546,0.542006 0,0.186422 0.0179,0.367081 0.0546,0.542055 0.0364,0.175171 0.0904,0.344252 0.16228,0.506927 l 1.2e-4,-9.5e-5 c 0.0738,0.165351 0.15972,0.319318 0.25857,0.461652 0.0992,0.142623 0.21168,0.274903 0.33787,0.396416 l 5e-4,4.79e-4 v 0 c 0.12589,0.122095 0.26267,0.230789 0.41033,0.326495 0.14744,0.09543 0.30668,0.178606 0.47781,0.249778 0.003,8.51e-4 0.006,0.0018 0.006,0.0027 0.16639,0.06826 0.33941,0.119651 0.51851,0.154345 0.18121,0.03504 0.36814,0.05256 0.56103,0.05256 0.19275,0 0.37992,-0.01755 0.56097,-0.05256 0.18122,-0.03504 0.35624,-0.0874 0.52468,-0.156843 l -1e-4,-1.93e-4 c 0.17125,-0.07113 0.3305,-0.154346 0.4778,-0.249776 0.14744,-0.09569 0.28448,-0.2044 0.4103,-0.326495 l 4.9e-4,-4.75e-4 v 0 c 0.12617,-0.121498 0.23881,-0.253798 0.33782,-0.396419 0.0987,-0.142377 0.18505,-0.296299 0.25861,-0.461653 8.8e-4,-0.002 0.003,-0.004 0.003,-0.0057 0.0706,-0.160851 0.1239,-0.32803 0.15972,-0.501039 0.0364,-0.174973 0.0546,-0.35569 0.0546,-0.542056 0,-0.186322 -0.0179,-0.367034 -0.0546,-0.542008 -0.0364,-0.175219 -0.0904,-0.344204 -0.16227,-0.506925 l -1.3e-4,4.7e-5 c -0.0737,-0.165352 -0.15972,-0.319316 -0.25863,-0.46165 -0.099,-0.142622 -0.21168,-0.274857 -0.33781,-0.396466 l -4.8e-4,-4.77e-4 v 0 c -0.12589,-0.121996 -0.26275,-0.230741 -0.41029,-0.326449 -0.14743,-0.09552 -0.30665,-0.178707 -0.4778,-0.249824 -0.003,-8.51e-4 -0.006,-0.0018 -0.006,-0.0027 -0.16637,-0.06826 -0.3394,-0.119693 -0.5185,-0.154346 -0.18096,-0.03507 -0.36809,-0.0526 -0.56096,-0.0526 z m -0.61092,-0.189811 c 0.1976,-0.03822 0.40142,-0.05737 0.61092,-0.05737 0.20938,0 0.41323,0.01904 0.61096,0.05737 0.19504,0.03772 0.38457,0.09433 0.56863,0.169852 0.003,8.51e-4 0.006,0.0016 0.009,0.0027 0.18351,0.0763 0.35654,0.166835 0.51878,0.272032 0.16176,0.10486 0.31134,0.223693 0.44882,0.356888 l 4.8e-4,4.77e-4 c 0.13768,0.132752 0.26085,0.277394 0.36933,0.433652 0.1087,0.156696 0.20246,0.323864 0.28153,0.501232 l -1.3e-4,4.7e-5 1.3e-4,4.22e-4 c 0.0796,0.179794 0.13896,0.365071 0.1784,0.555599 0.0396,0.191046 0.0594,0.387852 0.0594,0.590297 0,0.202448 -0.0205,0.399338 -0.0594,0.590298 -0.0392,0.188375 -0.0977,0.37158 -0.17584,0.549426 -9e-4,0.0023 -0.001,0.0044 -0.003,0.0067 -0.0789,0.177321 -0.17253,0.344444 -0.28154,0.501231 -0.10855,0.156201 -0.23164,0.300796 -0.36932,0.433653 l -5.1e-4,4.77e-4 c -0.1374,0.133207 -0.28709,0.252025 -0.4488,0.356885 -0.16229,0.105159 -0.33527,0.195745 -0.51877,0.272032 l -1.2e-4,-1.9e-4 -4.4e-4,1.9e-4 c -0.18607,0.07681 -0.3778,0.134343 -0.57501,0.172474 -0.19785,0.03824 -0.40142,0.05738 -0.61094,0.05738 -0.20964,0 -0.41327,-0.01904 -0.61095,-0.05738 -0.19478,-0.03777 -0.38454,-0.09433 -0.56864,-0.169852 -0.003,-8.5e-4 -0.006,-0.0016 -0.009,-0.0027 -0.18352,-0.0763 -0.35655,-0.166835 -0.51876,-0.272029 -0.16175,-0.10486 -0.31136,-0.223693 -0.44876,-0.356888 l -5.1e-4,-4.77e-4 c -0.13797,-0.132809 -0.26082,-0.277442 -0.36936,-0.433652 -0.10869,-0.156745 -0.20246,-0.323914 -0.28156,-0.501231 l 2.2e-4,-9.7e-5 -2.2e-4,-4.76e-4 c -0.0796,-0.179769 -0.13896,-0.365022 -0.1784,-0.555599 -0.0394,-0.191047 -0.0594,-0.387901 -0.0594,-0.590392 0,-0.202398 0.0205,-0.399244 0.0594,-0.590298 0.0392,-0.188326 0.0978,-0.371532 0.17586,-0.549377 8.5e-4,-0.0023 0.003,-0.0044 0.003,-0.0067 0.0791,-0.177371 0.17278,-0.344539 0.28156,-0.501229 0.10855,-0.156201 0.23164,-0.300845 0.36938,-0.433655 l 4.9e-4,-4.74e-4 c 0.13739,-0.133207 0.28708,-0.252028 0.44876,-0.356887 0.16229,-0.105201 0.33524,-0.195747 0.51876,-0.272034 l 10e-5,1.44e-4 3.8e-4,-1.44e-4 c 0.18608,-0.07677 0.37791,-0.134243 0.5751,-0.172374 z m 0.74304,3.667028 c -2.4e-4,0.04842 -0.0355,0.07897 -0.0806,0.09207 -0.0153,0.0047 -0.0341,0.0071 -0.0514,0.0071 -0.0179,0 -0.0351,-0.0024 -0.0514,-0.0071 -0.045,-0.01307 -0.0804,-0.04365 -0.0806,-0.09207 l -0.1692,-2.138305 c -6e-5,-4.77e-4 -6e-5,-9.82e-4 -6e-5,-0.0014 h -4e-5 c 0,-0.05236 0.0806,-0.08413 0.18405,-0.09658 0.0371,-0.0044 0.0773,-0.0067 0.1175,-0.0067 0.0402,0 0.0804,0.0023 0.11751,0.0067 0.10344,0.01236 0.18403,0.04422 0.18403,0.09658 0,8.51e-4 -1e-4,0.0017 -2e-4,0.0026 z"
       id="path1-1"
       style="fill:#b2b2b2;fill-opacity:1;stroke-width:0.0486892" />
    <path
       d="m 216.41593,142.39324 c -0.01,-0.0244 -0.0153,-0.0507 -0.0153,-0.0787 0,-0.0281 0.006,-0.0544 0.0153,-0.0787 0.01,-0.0243 0.0262,-0.0463 0.0469,-0.0665 v 0 l 2e-5,-1e-4 v 0 c 0.0205,-0.02 0.0438,-0.0351 0.0688,-0.0452 0.0256,-0.01 0.0524,-0.0153 0.0815,-0.0153 0.0291,0 0.0565,0.006 0.0818,0.0153 0.0256,0.01 0.0473,0.0247 0.0678,0.0442 3.8e-4,4e-4 8.2e-4,6.6e-4 10e-4,9.8e-4 0.0205,0.02 0.0364,0.0422 0.0469,0.0666 0.01,0.0244 0.0153,0.0507 0.0153,0.0787 0,0.028 -0.006,0.0543 -0.0153,0.0787 -0.01,0.0243 -0.0262,0.0465 -0.0469,0.0666 -0.0205,0.02 -0.044,0.0354 -0.0693,0.0456 -0.0256,0.01 -0.0524,0.0153 -0.0817,0.0153 -0.029,0 -0.0561,-0.006 -0.0814,-0.0153 -0.0256,-0.01 -0.0473,-0.0249 -0.0678,-0.0445 -3.7e-4,-3.7e-4 -8.1e-4,-7.8e-4 -0.001,-10e-4 -0.0205,-0.02 -0.0364,-0.0422 -0.0469,-0.0666 z m 0.19735,-4.02484 c -0.193,0 -0.37992,0.0175 -0.561,0.0526 -0.18124,0.035 -0.35632,0.0874 -0.52465,0.15685 l 5e-5,1.9e-4 c -0.17125,0.0712 -0.3305,0.1543 -0.4778,0.24983 -0.1477,0.0958 -0.28451,0.20441 -0.41033,0.32646 l -5.1e-4,4.7e-4 v 0 c -0.12618,0.12162 -0.23881,0.25379 -0.33786,0.39646 -0.0987,0.14233 -0.18481,0.2963 -0.25855,0.46166 -9e-4,0.001 -0.003,0.004 -0.003,0.006 -0.0706,0.16084 -0.1239,0.32794 -0.15972,0.50098 -0.0364,0.17498 -0.0546,0.3557 -0.0546,0.54202 0,0.18642 0.0179,0.36708 0.0546,0.54205 0.0364,0.17518 0.0904,0.34425 0.16227,0.50692 l 1.3e-4,-8e-5 c 0.0738,0.16534 0.15972,0.31931 0.25857,0.46165 0.0992,0.14261 0.21168,0.2749 0.33787,0.39641 l 5e-4,4.8e-4 v 0 c 0.12589,0.12205 0.26267,0.23079 0.41033,0.32649 0.14744,0.0955 0.30668,0.17862 0.47781,0.24979 0.003,8.5e-4 0.006,0.001 0.006,0.003 0.16639,0.0682 0.33941,0.11964 0.51851,0.15433 0.18121,0.0351 0.36814,0.0526 0.56103,0.0526 0.19275,0 0.37992,-0.0175 0.56097,-0.0526 0.18122,-0.0351 0.35624,-0.0874 0.52468,-0.15683 l -1e-4,-2e-4 c 0.17125,-0.0712 0.3305,-0.15435 0.4778,-0.24978 0.14744,-0.0958 0.28448,-0.20439 0.4103,-0.32648 l 4.8e-4,-4.9e-4 v 0 c 0.12618,-0.12148 0.23882,-0.25379 0.33783,-0.39642 0.0987,-0.14237 0.18505,-0.29629 0.25861,-0.46165 8.8e-4,-0.001 0.003,-0.004 0.003,-0.006 0.0706,-0.16084 0.1239,-0.32802 0.15972,-0.50102 0.0364,-0.17498 0.0546,-0.3557 0.0546,-0.54206 0,-0.18632 -0.0179,-0.36704 -0.0546,-0.54201 -0.0364,-0.17522 -0.0904,-0.3442 -0.16227,-0.50692 l -1.3e-4,4e-5 c -0.0737,-0.16536 -0.15972,-0.31931 -0.25863,-0.46165 -0.099,-0.14263 -0.21168,-0.27485 -0.33781,-0.39647 l -4.8e-4,-4.8e-4 v 0 c -0.12589,-0.12205 -0.26275,-0.23073 -0.41029,-0.32644 -0.14743,-0.0955 -0.30665,-0.17871 -0.4778,-0.24982 -0.003,-8.5e-4 -0.006,-0.001 -0.006,-0.003 -0.16637,-0.0682 -0.3394,-0.11964 -0.5185,-0.15435 -0.18097,-0.0351 -0.36809,-0.0526 -0.56096,-0.0526 z m -0.61092,-0.1898 c 0.1976,-0.0382 0.40142,-0.0574 0.61092,-0.0574 0.20938,0 0.41323,0.019 0.61096,0.0574 0.19504,0.0377 0.38457,0.0944 0.56863,0.16985 0.003,8.6e-4 0.006,10e-4 0.009,0.003 0.18351,0.0763 0.35654,0.16684 0.51877,0.27203 0.16177,0.10486 0.31135,0.2237 0.44883,0.35689 l 4.8e-4,4.7e-4 c 0.13768,0.13271 0.26084,0.2774 0.36933,0.43367 0.10869,0.15669 0.20246,0.32385 0.28153,0.50122 l -1.3e-4,4e-5 1.3e-4,4.3e-4 c 0.0796,0.1798 0.13896,0.36508 0.1784,0.5556 0.0396,0.19105 0.0594,0.38786 0.0594,0.5903 0,0.20245 -0.0205,0.39934 -0.0594,0.5903 -0.0392,0.18836 -0.0977,0.37157 -0.17584,0.54942 -9e-4,0.003 -0.001,0.004 -0.003,0.007 -0.0789,0.17732 -0.17252,0.34444 -0.28153,0.50122 -0.10855,0.15621 -0.23164,0.3008 -0.36932,0.43366 l -5.1e-4,4.7e-4 c -0.1374,0.13314 -0.28709,0.25204 -0.4488,0.3569 -0.16229,0.10514 -0.33527,0.19574 -0.51877,0.27202 l -1.2e-4,-1.8e-4 -4.4e-4,1.8e-4 c -0.18607,0.0769 -0.37781,0.13427 -0.57501,0.17248 -0.19785,0.0382 -0.40142,0.0574 -0.61094,0.0574 -0.20964,0 -0.41328,-0.019 -0.61095,-0.0574 -0.19478,-0.0378 -0.38454,-0.0943 -0.56864,-0.16985 -0.003,-8.5e-4 -0.006,-0.001 -0.009,-0.003 -0.18352,-0.0763 -0.35655,-0.16684 -0.51876,-0.27204 -0.16175,-0.10486 -0.31137,-0.22369 -0.44876,-0.35688 l -5.1e-4,-4.8e-4 c -0.13797,-0.13285 -0.26082,-0.27744 -0.36936,-0.43365 -0.1087,-0.15675 -0.20246,-0.32392 -0.28156,-0.50123 l 2.1e-4,-1e-4 -2.1e-4,-4.8e-4 c -0.0796,-0.17977 -0.13896,-0.36502 -0.1784,-0.5556 -0.0394,-0.19104 -0.0594,-0.3879 -0.0594,-0.59039 0,-0.2024 0.0205,-0.39925 0.0594,-0.5903 0.0392,-0.18832 0.0978,-0.37152 0.17586,-0.54937 8.5e-4,-0.003 0.003,-0.004 0.003,-0.007 0.0791,-0.17737 0.17278,-0.34453 0.28156,-0.50122 0.10855,-0.1562 0.23164,-0.30084 0.36938,-0.43367 l 4.9e-4,-4.7e-4 c 0.13739,-0.13313 0.28708,-0.25203 0.44876,-0.35688 0.16229,-0.10514 0.33524,-0.19575 0.51876,-0.27203 l 1e-4,1.4e-4 3.8e-4,-1.4e-4 c 0.18608,-0.0767 0.37791,-0.13428 0.5751,-0.17238 z m 0.74304,3.66702 c -2.4e-4,0.0485 -0.0355,0.079 -0.0806,0.0921 -0.0154,0.004 -0.0341,0.007 -0.0514,0.007 -0.0179,0 -0.0351,-0.003 -0.0514,-0.007 -0.045,-0.0128 -0.0804,-0.0436 -0.0806,-0.0921 l -0.1692,-2.13829 c -6e-5,-4.9e-4 -6e-5,-0.001 -6e-5,-0.001 h -4e-5 c 0,-0.0523 0.0806,-0.0841 0.18404,-0.0966 0.0371,-0.004 0.0773,-0.007 0.11751,-0.007 0.0402,0 0.0804,0.003 0.11751,0.007 0.10344,0.0128 0.18403,0.0442 0.18403,0.0966 0,8.5e-4 -1e-4,0.001 -2e-4,0.003 z"
       id="path1-1-8"
       style="fill:#fbfbfb;fill-opacity:0.14285715;stroke-width:0.0486892" />
    <rect
       style="fill:#b2b2b2;fill-opacity:1;stroke:none;stroke-width:0.272414;stroke-linejoin:round"
       id="rect5-9-1-2"
       width="24.582596"
       height="19.314583"
       x="8.7608433"
       y="68.400063"
       rx="3.6812217"
       ry="3.8267" />
    <rect
       style="fill:#b2b2b2;fill-opacity:1;stroke:none;stroke-width:0.272414;stroke-linejoin:round"
       id="rect5-9-1-1"
       width="24.582596"
       height="19.314583"
       x="8.7608433"
       y="95.649078"
       rx="3.6812217"
       ry="3.8267" />
    <rect
       style="fill:#b2b2b2;fill-opacity:1;stroke:none;stroke-width:0.272414;stroke-linejoin:round"
       id="rect5-9-1-1-2"
       width="24.582596"
       height="19.314583"
       x="8.7608442"
       y="122.56323"
       rx="3.6812217"
       ry="3.8267" />
  </g>
</svg>
