<?xml version="1.0" encoding="UTF-8" standalone="no"?>
<!-- Created with Inkscape (http://www.inkscape.org/) -->

<svg
   width="1280"
   height="700"
   viewBox="0 0 338.66664 185.20832"
   version="1.1"
   id="svg1"
   sodipodi:docname="SVG_painel_Operacional.svg"
   inkscape:version="1.4.2 (f4327f4, 2025-05-13)"
   xml:space="preserve"
   xmlns:inkscape="http://www.inkscape.org/namespaces/inkscape"
   xmlns:sodipodi="http://sodipodi.sourceforge.net/DTD/sodipodi-0.dtd"
   xmlns="http://www.w3.org/2000/svg"
   xmlns:svg="http://www.w3.org/2000/svg"><sodipodi:namedview
     id="namedview1"
     pagecolor="#505050"
     bordercolor="#eeeeee"
     borderopacity="1"
     inkscape:showpageshadow="0"
     inkscape:pageopacity="0"
     inkscape:pagecheckerboard="0"
     inkscape:deskcolor="#505050"
     inkscape:document-units="mm"
     showguides="true"
     inkscape:zoom="4"
     inkscape:cx="1088.25"
     inkscape:cy="180.875"
     inkscape:window-width="1080"
     inkscape:window-height="1897"
     inkscape:window-x="1912"
     inkscape:window-y="-8"
     inkscape:window-maximized="1"
     inkscape:current-layer="layer1"><sodipodi:guide
       position="172.72723,136.65728"
       orientation="1,0"
       id="guide3"
       inkscape:locked="false" /><sodipodi:guide
       position="184.84359,113.93395"
       orientation="1,0"
       id="guide4"
       inkscape:locked="false" /><sodipodi:guide
       position="242.43627,99.94908"
       orientation="1,0"
       id="guide5"
       inkscape:locked="false" /><sodipodi:guide
       position="61.912495,152.61327"
       orientation="0,-1"
       id="guide6"
       inkscape:locked="false" /><sodipodi:guide
       position="318.31882,121.17916"
       orientation="1,0"
       id="guide11"
       inkscape:locked="false" /><sodipodi:guide
       position="255.60402,106.34596"
       orientation="1,0"
       id="guide12"
       inkscape:locked="false" /><sodipodi:guide
       position="319.9063,50.562976"
       orientation="1,0"
       id="guide13"
       inkscape:locked="false" /><sodipodi:guide
       position="65.087495,29.589015"
       orientation="0,-1"
       id="guide14"
       inkscape:locked="false" /><sodipodi:guide
       position="14.884519,135.53628"
       orientation="1,0"
       id="guide15"
       inkscape:locked="false" /><sodipodi:guide
       position="36.711634,127.11729"
       orientation="1,0"
       id="guide16"
       inkscape:locked="false" /><sodipodi:guide
       position="119.55872,93.558702"
       orientation="1,0"
       id="guide17"
       inkscape:locked="false" /><sodipodi:guide
       position="133.62343,79.832615"
       orientation="1,0"
       id="guide19"
       inkscape:locked="false" /><sodipodi:guide
       position="259.82081,148.13792"
       orientation="0,-1"
       id="guide18"
       inkscape:locked="false" /></sodipodi:namedview><defs
     id="defs1"><style
       id="style1">
      .cls-1 {
        fill: #fff;
      }

      .cls-1, .cls-2 {
        fill-rule: evenodd;
      }

      .cls-3 {
        fill: none;
      }

      .cls-2 {
        fill: #e30a18;
      }

      .cls-4 {
        clip-path: url(#clippath);
      }
    </style><clipPath
       id="clippath"><rect
         class="cls-3"
         width="1057.75"
         height="590.66"
         id="rect1" /></clipPath></defs><g
     inkscape:label="Camada 1"
     inkscape:groupmode="layer"
     id="layer1"><g
       id="btn_entrar-1"
       class="btn"
       transform="matrix(1.0810567,0,0,1.2716522,38.332282,-21.155171)"
       style="fill:#b2b2b2;fill-opacity:1"><rect
         style="fill:#b2b2b2;fill-opacity:1;stroke-width:0.327085;stroke-linejoin:round"
         id="btn_entrar_background-3"
         width="26.865944"
         height="15.445862"
         x="232.12743"
         y="45.787342"
         rx="1.6782898" /><rect
         style="fill:#cccccc;fill-opacity:1;stroke:none;stroke-width:0.379073;stroke-linejoin:round;stroke-opacity:1"
         id="rect18-3"
         width="307.97473"
         height="136.39354"
         x="-32.808666"
         y="17.982347"
         rx="8.9589443"
         ry="8.1199245" /></g><rect
       style="fill:#4d4d4d;fill-opacity:1;stroke:none;stroke-width:0.123491;stroke-linejoin:round;stroke-opacity:1"
       id="rect18"
       width="36.186237"
       height="123.19321"
       x="7.7142615"
       y="32.595051"
       rx="7.1888566"
       ry="7.1021943" /><rect
       style="fill:#666666;fill-opacity:1;stroke:#666666;stroke-width:0.337924;stroke-linejoin:round;stroke-opacity:1"
       id="rect18-3-3"
       width="271.71042"
       height="122.8553"
       x="51.709053"
       y="32.764015"
       rx="7.9040203"
       ry="7.3139524" /><circle
       style="fill:#808080;fill-opacity:1;stroke-width:1.88976;stroke-linejoin:round"
       id="path4"
       cx="0"
       cy="0"
       r="0"
       transform="scale(0.26458333)" /><rect
       style="fill:#f2f2f2;fill-opacity:1;stroke-width:0.688856;stroke-linejoin:round"
       id="display_manutencao"
       width="107.84527"
       height="17.066544"
       x="210.47357"
       y="131.02197"
       rx="3.8239322"
       ry="3.4654715" /><g
       id="display_produzidos"
       transform="matrix(1.0810567,0,0,0.84815571,30.090041,20.93902)"
       style="fill:#f2f2f2;fill-opacity:1"><rect
         style="fill:#f2f2f2;fill-opacity:1;stroke-width:1.16522;stroke-linejoin:round"
         id="env_produzidos"
         width="66.834152"
         height="78.797142"
         x="24.701029"
         y="46.408939"
         rx="2.5245523" /></g><g
       id="env_min"
       transform="matrix(1.1385013,0,0,0.54920468,0.88067143,58.491549)"
       style="fill:#b2b2b2;fill-opacity:1"><rect
         style="fill:#b2b2b2;fill-opacity:1;stroke-width:0.681086;stroke-linejoin:round"
         id="env_minuto_background"
         width="45.464642"
         height="39.57534"
         x="184.47751"
         y="84.324638"
         rx="2.392189"
         ry="6.6188235" /></g><g
       id="env_min-8"
       transform="matrix(1.0699794,0,0,0.44026826,-140.5939,93.717689)"
       style="fill:#b2b2b2;fill-opacity:1"><rect
         style="fill:#b2b2b2;fill-opacity:1;stroke-width:0.681086;stroke-linejoin:round"
         id="env_minuto_background-2"
         width="45.464642"
         height="39.57534"
         x="184.47751"
         y="84.324638"
         rx="2.392189"
         ry="6.6188235" /></g><g
       id="env_min-8-7"
       transform="matrix(1.0699794,0,0,0.44026826,-89.606244,93.717689)"
       style="fill:#b2b2b2;fill-opacity:1"><rect
         style="fill:#b2b2b2;fill-opacity:1;stroke-width:0.681086;stroke-linejoin:round"
         id="env_minuto_background-2-1"
         width="45.464642"
         height="39.57534"
         x="184.47751"
         y="84.324638"
         rx="2.392189"
         ry="6.6188235" /></g><g
       id="env_min-8-7-6"
       transform="matrix(1.0699794,0,0,0.44026826,-38.618599,93.717689)"
       style="fill:#b2b2b2;fill-opacity:1"><rect
         style="fill:#b2b2b2;fill-opacity:1;stroke-width:0.681086;stroke-linejoin:round"
         id="env_minuto_background-2-1-1"
         width="45.464642"
         height="39.57534"
         x="184.47751"
         y="84.324638"
         rx="2.392189"
         ry="6.6188235" /></g><g
       id="env_min-7"
       transform="matrix(1.1385013,0,0,1.9722152,56.529403,-106.03743)"
       style="fill:#b2b2b2;fill-opacity:1"><rect
         style="fill:#b2b2b2;fill-opacity:1;stroke-width:0.630366;stroke-linejoin:round"
         id="env_minuto_background-6"
         width="45.464642"
         height="33.900558"
         x="184.47751"
         y="84.324638"
         rx="2.3921909"
         ry="1.4423602" /></g><rect
       style="fill:#f2f2f2;fill-opacity:1;stroke-width:0.811065;stroke-linejoin:round"
       id="bar_progressao"
       width="38.293522"
       height="66.63166"
       x="132.84624"
       y="60.312645"
       rx="2.8647461" /><g
       id="display_numerico"
       transform="matrix(1.0344583,0,0,0.96486904,35.326178,15.231776)"><rect
         style="fill:#4d4d4d;fill-opacity:1;stroke-width:0.441102;stroke-linejoin:round"
         id="display_num_background"
         width="37.012009"
         height="20.390436"
         x="94.277534"
         y="22.640427"
         rx="2.652189"
         ry="3.5858355" /></g><g
       id="display_numerico-1"
       transform="matrix(1.398506,0,0,0.96486904,134.7096,15.209188)"><rect
         style="fill:#4d4d4d;fill-opacity:1;stroke-width:0.441102;stroke-linejoin:round"
         id="display_num_background-3"
         width="37.012009"
         height="20.390436"
         x="94.277534"
         y="22.640427"
         rx="1.8008362"
         ry="2.5575213" /></g><g
       id="display_numerico-9"
       transform="matrix(1.9521099,0,0,0.96486904,-127.24685,15.231776)"><rect
         style="fill:#4d4d4d;fill-opacity:1;stroke-width:0.441102;stroke-linejoin:round"
         id="display_num_background-5"
         width="37.012009"
         height="20.390436"
         x="94.277534"
         y="22.640427"
         rx="1.4528457"
         ry="3.0849395" /></g><g
       id="notificacao"
       transform="matrix(0.70009451,0,0,0.96328316,81.389162,15.139505)"
       style="fill:#f2f2f2;fill-opacity:1"><rect
         style="fill:#f2f2f2;fill-opacity:1;stroke-width:0.692407;stroke-linejoin:round"
         id="display_notificacao"
         width="125.35505"
         height="20.390436"
         x="133.55038"
         y="22.766823"
         rx="3.2489593" /><text
         id="texto_notificacao"
         x="196.22701"
         y="32.962002"
         font-family="Arial, sans-serif"
         font-size="9px"
         font-weight="bold"
         text-anchor="middle"
         dominant-baseline="middle"
         fill="#28a745"
         style="fill:#f2f2f2;fill-opacity:1" /></g><rect
       style="fill:#b2b2b2;fill-opacity:1;stroke:none;stroke-width:0.256768;stroke-linejoin:round"
       id="rect5-9-1"
       width="21.827116"
       height="19.32584"
       x="14.884521"
       y="43.904633"
       rx="2.1332762"
       ry="2.5529299" /><rect
       style="fill:#b2b2b2;fill-opacity:1;stroke:none;stroke-width:0.256768;stroke-linejoin:round"
       id="rect5-9-1-5"
       width="21.827116"
       height="19.32584"
       x="14.884521"
       y="70.203835"
       rx="2.1332762"
       ry="2.5529299" /><rect
       style="fill:#b2b2b2;fill-opacity:1;stroke:none;stroke-width:0.256768;stroke-linejoin:round"
       id="rect5-9-1-0"
       width="21.827116"
       height="19.32584"
       x="14.893823"
       y="96.503036"
       rx="2.1332762"
       ry="2.5529299" /><rect
       style="fill:#b2b2b2;fill-opacity:1;stroke:none;stroke-width:0.256768;stroke-linejoin:round"
       id="rect5-9-1-50"
       width="21.827116"
       height="19.32584"
       x="14.893823"
       y="122.80224"
       rx="2.1332762"
       ry="2.5529299" /><rect
       style="fill:#f2f2f2;fill-opacity:1;stroke-width:0.454566;stroke-linejoin:round"
       id="op_input_background"
       width="51.646187"
       height="15.518394"
       x="210.87045"
       y="60.298443"
       rx="3.2262881" /><rect
       style="fill:#f2f2f2;fill-opacity:1;stroke-width:0.454566;stroke-linejoin:round"
       id="op_input_background-3"
       width="51.646187"
       height="15.518394"
       x="266.61496"
       y="8.3303204"
       rx="3.2262881" /><rect
       style="fill:#f2f2f2;fill-opacity:1;stroke-width:0.451517;stroke-linejoin:round"
       id="quebra_input"
       width="51.744831"
       height="15.281744"
       x="210.9026"
       y="79.308678"
       rx="3.2904844" /><text
       xml:space="preserve"
       style="font-size:4.93889px;font-family:Arial;-inkscape-font-specification:Arial;text-align:start;writing-mode:lr-tb;direction:ltr;text-anchor:start;fill:#f2f2f2;fill-opacity:1;stroke-width:0.517296;stroke-linejoin:round"
       x="174.99208"
       y="73.348251"
       id="text2-1-7-2"
       transform="scale(1.0449068,0.95702316)"><tspan
         sodipodi:role="line"
         id="tspan2-0-1-1"
         style="font-size:4.93889px;fill:#f2f2f2;fill-opacity:1;stroke-width:0.517296"
         x="174.99208"
         y="73.348251">Requisição</tspan></text><text
       xml:space="preserve"
       style="font-size:4.93889px;font-family:Arial;-inkscape-font-specification:Arial;text-align:start;writing-mode:lr-tb;direction:ltr;text-anchor:start;fill:#f2f2f2;fill-opacity:1;stroke-width:0.517296;stroke-linejoin:round"
       x="174.99208"
       y="92.131096"
       id="text2-1-7-2-6"
       transform="scale(1.0449068,0.95702316)"><tspan
         sodipodi:role="line"
         id="tspan2-0-1-1-1"
         style="font-size:4.93889px;fill:#f2f2f2;fill-opacity:1;stroke-width:0.517296"
         x="174.99208"
         y="92.131096">Quantidade</tspan></text><text
       xml:space="preserve"
       style="font-size:3.99621px;font-family:Arial;-inkscape-font-specification:Arial;text-align:start;writing-mode:lr-tb;direction:ltr;text-anchor:start;fill:#b2b2b2;fill-opacity:1;stroke-width:0.517296;stroke-linejoin:round"
       x="210.23418"
       y="142.79913"
       id="text2-1-7-8"
       transform="scale(1.0449068,0.95702316)"><tspan
         sodipodi:role="line"
         id="tspan2-0-1-2"
         style="font-size:3.99621px;fill:#b2b2b2;fill-opacity:1;stroke-width:0.517296"
         x="210.23418"
         y="142.79913">Manutenção</tspan></text><text
       xml:space="preserve"
       style="font-size:7.29965px;font-family:Arial;-inkscape-font-specification:Arial;text-align:start;writing-mode:lr-tb;direction:ltr;text-anchor:start;fill:#cccccc;fill-opacity:1;stroke-width:0.517296;stroke-linejoin:round"
       x="57.911404"
       y="73.267357"
       id="text2-1-8"
       transform="scale(1.0449068,0.95702316)"><tspan
         sodipodi:role="line"
         style="font-size:7.29965px;fill:#808080;fill-opacity:1;stroke-width:0.517296"
         x="57.911404"
         y="73.267357"
         id="tspan21">Contador/Env</tspan></text><rect
       style="fill:#666666;fill-opacity:1;stroke-width:0.372395;stroke-linejoin:round"
       id="rect3"
       width="6.6655607"
       height="1.2031432"
       x="166.48399"
       y="62.816078"
       rx="0"
       ry="0" /><rect
       style="fill:#666666;fill-opacity:1;stroke-width:0.372395;stroke-linejoin:round"
       id="rect3-6"
       width="6.6655607"
       height="1.2031432"
       x="166.89276"
       y="123.20782"
       rx="0"
       ry="0" /><rect
       style="fill:#666666;fill-opacity:1;stroke-width:0.314246;stroke-linejoin:round"
       id="rect3-6-8"
       width="4.7464633"
       height="1.2031432"
       x="168.27501"
       y="92.478271"
       rx="0"
       ry="0" /><text
       xml:space="preserve"
       style="font-size:10.9495px;font-family:Arial;-inkscape-font-specification:Arial;text-align:start;writing-mode:lr-tb;direction:ltr;text-anchor:start;fill:#f2f2f2;fill-opacity:1;stroke-width:0.517296;stroke-linejoin:round"
       x="164.62016"
       y="133.88261"
       id="text5"
       transform="scale(1.0449068,0.95702316)"><tspan
         sodipodi:role="line"
         id="tspan3"
         style="fill:#f2f2f2;fill-opacity:1;stroke-width:0.517296"
         x="164.62016"
         y="133.88261">0</tspan></text><text
       xml:space="preserve"
       style="font-size:10.9495px;font-family:Arial;-inkscape-font-specification:Arial;text-align:start;writing-mode:lr-tb;direction:ltr;text-anchor:start;fill:#f2f2f2;fill-opacity:1;stroke-width:0.517296;stroke-linejoin:round"
       x="164.77325"
       y="71.009232"
       id="text3-1"
       transform="scale(1.0449068,0.95702316)"><tspan
         sodipodi:role="line"
         id="tspan3-2"
         style="fill:#f2f2f2;fill-opacity:1;stroke-width:0.517296"
         x="164.77325"
         y="71.009232">#</tspan></text><text
       xml:space="preserve"
       style="font-size:13.3235px;font-family:Arial;-inkscape-font-specification:Arial;text-align:start;writing-mode:lr-tb;direction:ltr;text-anchor:start;fill:#f2f2f2;fill-opacity:1;stroke-width:0.472091;stroke-linejoin:round"
       x="57.173054"
       y="54.488674"
       id="text6"
       transform="scale(1.0495275,0.95280972)"><tspan
         sodipodi:role="line"
         id="tspan4"
         style="font-size:13.3235px;fill:#f2f2f2;fill-opacity:1;stroke-width:0.472092"
         x="57.173054"
         y="54.488674">MÁQUINA</tspan></text><rect
       style="fill:#4d4d4d;fill-opacity:1;stroke:none;stroke-width:0.520214;stroke-linejoin:round"
       id="rect5-9-6"
       width="89.646416"
       height="19.314583"
       x="51.302673"
       y="6.4322257"
       rx="4.2854624"
       ry="3.6235626" /><text
       xml:space="preserve"
       style="font-size:14.1111px;font-family:Arial;-inkscape-font-specification:Arial;text-align:start;writing-mode:lr-tb;direction:ltr;text-anchor:start;fill:#f2f2f2;fill-opacity:1;stroke-width:0.499999;stroke-linejoin:round"
       x="56.111126"
       y="20.968281"
       id="text7"><tspan
         sodipodi:role="line"
         id="tspan5"
         style="font-size:14.1111px;fill:#ffffff;fill-opacity:1;stroke-width:0.5"
         x="56.111126"
         y="20.968281">OPERAÇÃO</tspan></text><path
       d="m 179.38343,42.979223 c -0.01,-0.02439 -0.0153,-0.05049 -0.0153,-0.07844 0,-0.02805 0.006,-0.05422 0.0153,-0.0785 0.01,-0.02415 0.026,-0.0462 0.0467,-0.06625 v 0 l 1e-5,-9.6e-5 v 0 c 0.0204,-0.01997 0.0436,-0.03501 0.0686,-0.04509 0.0255,-0.01005 0.0523,-0.01528 0.0812,-0.01528 0.029,0 0.0564,0.005 0.0815,0.01528 0.0255,0.0099 0.0472,0.02464 0.0675,0.04408 3.8e-4,3.96e-4 8.2e-4,6.52e-4 9.5e-4,9.53e-4 0.0204,0.01997 0.0362,0.04211 0.0467,0.06635 0.01,0.02439 0.0153,0.05052 0.0153,0.0785 0,0.02795 -0.006,0.05414 -0.0153,0.07844 -0.01,0.02415 -0.026,0.04631 -0.0467,0.06635 -0.0204,0.01995 -0.0439,0.03528 -0.0691,0.04546 -0.0255,0.01005 -0.0522,0.01528 -0.0814,0.01528 -0.0289,0 -0.056,-0.0052 -0.0812,-0.01528 -0.0255,-0.0099 -0.0472,-0.02479 -0.0675,-0.04436 -3.7e-4,-3.68e-4 -8.1e-4,-7.83e-4 -9.5e-4,-0.0011 -0.0204,-0.01997 -0.0362,-0.04211 -0.0467,-0.06635 z m 0.19666,-4.01099 c -0.19233,0 -0.3786,0.01749 -0.55908,0.05238 -0.1806,0.03489 -0.35508,0.08704 -0.52283,0.156306 l 4e-5,1.88e-4 c -0.17065,0.07089 -0.32935,0.153766 -0.47615,0.248969 -0.14719,0.09538 -0.28354,0.203699 -0.40893,0.325325 l -5e-4,4.76e-4 v 0 c -0.12574,0.121181 -0.23798,0.252923 -0.3367,0.395105 -0.0984,0.141836 -0.18417,0.295277 -0.25766,0.460064 -8.9e-4,0.002 -0.003,0.004 -0.003,0.0059 -0.0704,0.160297 -0.12347,0.326804 -0.15917,0.499269 -0.0362,0.174371 -0.0544,0.354469 -0.0544,0.540142 0,0.185781 0.0178,0.365819 0.0544,0.540192 0.0362,0.174568 0.09,0.343069 0.16171,0.505184 l 1.4e-4,-9.4e-5 c 0.0735,0.164782 0.15917,0.31822 0.25768,0.460064 0.0988,0.142133 0.21095,0.273959 0.33671,0.395054 l 4.9e-4,4.77e-4 v 0 c 0.12545,0.121675 0.26177,0.229996 0.40892,0.325373 0.14694,0.0951 0.30563,0.177992 0.47617,0.248919 0.003,8.47e-4 0.006,0.0018 0.006,0.0027 0.16581,0.06803 0.33823,0.11924 0.51672,0.153814 0.1806,0.03492 0.36688,0.05238 0.5591,0.05238 0.19209,0 0.37862,-0.01749 0.55905,-0.05238 0.18059,-0.03492 0.35501,-0.0871 0.52288,-0.156303 l -1.1e-4,-1.93e-4 c 0.17066,-0.07089 0.32936,-0.153815 0.47616,-0.248917 0.14693,-0.09537 0.2835,-0.203698 0.40889,-0.325373 l 4.8e-4,-4.73e-4 v 0 c 0.12574,-0.121081 0.23801,-0.252926 0.33667,-0.395057 0.0984,-0.141887 0.18441,-0.29528 0.25772,-0.460066 8.8e-4,-0.002 0.003,-0.004 0.003,-0.0056 0.0704,-0.160298 0.12347,-0.326903 0.15917,-0.499317 0.0362,-0.174371 0.0544,-0.354467 0.0544,-0.540191 0,-0.185683 -0.0178,-0.365774 -0.0544,-0.540146 -0.0362,-0.174616 -0.09,-0.343021 -0.16172,-0.505182 l -1.3e-4,4.7e-5 c -0.0735,-0.164784 -0.15917,-0.318218 -0.25774,-0.460063 -0.0987,-0.142132 -0.21095,-0.273912 -0.33664,-0.395104 l -4.8e-4,-4.75e-4 v 0 c -0.12546,-0.121577 -0.26185,-0.229947 -0.40888,-0.325326 -0.14693,-0.09519 -0.3056,-0.178093 -0.47616,-0.248966 -0.003,-8.47e-4 -0.006,-0.0018 -0.006,-0.0027 -0.1658,-0.06803 -0.33823,-0.119283 -0.51672,-0.153815 -0.18034,-0.03495 -0.36682,-0.05242 -0.55903,-0.05242 z m -0.60881,-0.189157 c 0.19692,-0.0381 0.40004,-0.05718 0.60881,-0.05718 0.20866,0 0.41181,0.01898 0.60886,0.05718 0.19437,0.0376 0.38325,0.094 0.56667,0.169268 0.003,8.48e-4 0.006,0.0015 0.009,0.0027 0.18287,0.07604 0.35531,0.166261 0.51698,0.271097 0.16122,0.1045 0.31028,0.222924 0.44729,0.355661 l 4.8e-4,4.75e-4 c 0.13721,0.132296 0.25995,0.27644 0.36805,0.432161 0.10833,0.156158 0.20177,0.322751 0.28057,0.49951 l -1.3e-4,4.7e-5 1.3e-4,4.2e-4 c 0.0792,0.179176 0.13848,0.363816 0.17779,0.55369 0.0395,0.190388 0.0592,0.386518 0.0592,0.588267 0,0.201752 -0.0204,0.397964 -0.0592,0.588268 -0.0391,0.187728 -0.0974,0.370303 -0.17524,0.547537 -8.9e-4,0.0023 -9.6e-4,0.0044 -0.003,0.0067 -0.0786,0.176712 -0.17193,0.34326 -0.28056,0.499508 -0.10819,0.155665 -0.23085,0.299763 -0.36806,0.432163 l -5.1e-4,4.76e-4 c -0.13693,0.132748 -0.2861,0.251159 -0.44725,0.355658 -0.16174,0.104797 -0.33412,0.195071 -0.517,0.271097 l -1e-4,-1.9e-4 -4.5e-4,1.9e-4 c -0.18543,0.07655 -0.37651,0.133881 -0.57303,0.171881 -0.19718,0.0381 -0.40004,0.05718 -0.60884,0.05718 -0.20892,0 -0.41186,-0.01898 -0.60885,-0.05718 -0.19412,-0.03764 -0.38322,-0.094 -0.56669,-0.169269 -0.003,-8.46e-4 -0.006,-0.0015 -0.009,-0.0027 -0.18289,-0.07604 -0.35533,-0.166262 -0.51698,-0.271094 -0.16119,-0.1045 -0.3103,-0.222925 -0.44722,-0.355661 l -5.1e-4,-4.76e-4 c -0.13749,-0.132352 -0.25992,-0.276488 -0.36808,-0.432161 -0.10833,-0.156205 -0.20177,-0.322801 -0.2806,-0.499508 l 2.2e-4,-9.6e-5 -2.2e-4,-4.75e-4 c -0.0793,-0.179151 -0.13848,-0.363767 -0.17779,-0.553689 -0.0392,-0.19039 -0.0592,-0.386567 -0.0592,-0.588362 0,-0.201703 0.0204,-0.397871 0.0592,-0.588269 0.0391,-0.187678 0.0974,-0.370256 0.17526,-0.547488 8.5e-4,-0.0023 0.003,-0.0044 0.003,-0.0067 0.0789,-0.176762 0.17218,-0.343355 0.28059,-0.499507 0.10818,-0.155663 0.23085,-0.299811 0.36812,-0.432164 l 4.7e-4,-4.72e-4 c 0.13693,-0.132749 0.2861,-0.251162 0.44723,-0.35566 0.16173,-0.10484 0.33409,-0.195075 0.51697,-0.271099 l 1e-4,1.43e-4 3.8e-4,-1.43e-4 c 0.18544,-0.0765 0.37661,-0.133782 0.57313,-0.171781 z m 0.74048,3.654422 c -2.4e-4,0.04826 -0.0354,0.0787 -0.0803,0.09175 -0.0153,0.0047 -0.034,0.0071 -0.0513,0.0071 -0.0178,0 -0.035,-0.0024 -0.0513,-0.0071 -0.0449,-0.01303 -0.0801,-0.0435 -0.0803,-0.09175 l -0.16861,-2.130955 c -6e-5,-4.76e-4 -6e-5,-9.54e-4 -6e-5,-0.0014 h -5e-5 c 0,-0.05218 0.0803,-0.08384 0.18342,-0.09624 0.037,-0.0044 0.077,-0.0067 0.1171,-0.0067 0.0401,0 0.0801,0.0023 0.1171,0.0067 0.10309,0.01232 0.1834,0.04406 0.1834,0.09624 0,8.48e-4 -1e-4,0.0017 -2e-4,0.0026 z"
       id="path1-1"
       style="fill:#b2b2b2;fill-opacity:1;stroke-width:0.0485217" /><path
       d="m 215.35408,136.65583 c -0.01,-0.0243 -0.0153,-0.0505 -0.0153,-0.0785 0,-0.028 0.006,-0.0543 0.0153,-0.0785 0.01,-0.0242 0.026,-0.0461 0.0467,-0.0663 v 0 l 2e-5,-1e-4 v 0 c 0.0204,-0.0199 0.0436,-0.035 0.0686,-0.045 0.0255,-0.01 0.0523,-0.0153 0.0813,-0.0153 0.029,0 0.0564,0.006 0.0815,0.0153 0.0255,0.01 0.0472,0.0246 0.0675,0.044 3.9e-4,3.9e-4 8.3e-4,6.5e-4 9.5e-4,9.5e-4 0.0204,0.0199 0.0362,0.0421 0.0467,0.0664 0.01,0.0243 0.0153,0.0505 0.0153,0.0785 0,0.0279 -0.006,0.0541 -0.0153,0.0785 -0.01,0.0242 -0.026,0.0463 -0.0467,0.0664 -0.0204,0.0199 -0.0439,0.0353 -0.0691,0.0455 -0.0255,0.01 -0.0523,0.0153 -0.0814,0.0153 -0.0289,0 -0.056,-0.006 -0.0812,-0.0153 -0.0255,-0.01 -0.0472,-0.0248 -0.0675,-0.0443 -3.7e-4,-3.6e-4 -8.1e-4,-7.7e-4 -9.5e-4,-9.5e-4 -0.0204,-0.0199 -0.0362,-0.042 -0.0467,-0.0664 z m 0.19666,-4.01099 c -0.19234,0 -0.37861,0.0174 -0.55907,0.0524 -0.18061,0.0348 -0.35509,0.0871 -0.52284,0.15631 l 5e-5,1.8e-4 c -0.17066,0.0709 -0.32937,0.15378 -0.47616,0.24898 -0.14719,0.0954 -0.28353,0.2037 -0.40892,0.32534 l -5.1e-4,4.6e-4 v 0 c -0.12574,0.12121 -0.23799,0.25292 -0.33669,0.3951 -0.0984,0.14184 -0.18418,0.29528 -0.25767,0.46006 -8.9e-4,9.6e-4 -0.003,0.004 -0.003,0.006 -0.0704,0.16029 -0.12347,0.3268 -0.15917,0.49926 -0.0362,0.17438 -0.0544,0.35448 -0.0544,0.54016 0,0.18577 0.0178,0.36581 0.0544,0.54017 0.0362,0.17458 0.09,0.34307 0.16172,0.50519 l 1.2e-4,-9e-5 c 0.0735,0.16478 0.15917,0.31822 0.25769,0.46007 0.0988,0.14212 0.21095,0.27395 0.3367,0.39504 l 5e-4,4.9e-4 v 0 c 0.12545,0.12163 0.26177,0.22999 0.40892,0.32536 0.14693,0.0952 0.30563,0.178 0.47616,0.24893 0.003,8.5e-4 0.006,9.5e-4 0.006,0.003 0.16581,0.068 0.33824,0.11922 0.51672,0.15381 0.18059,0.035 0.36688,0.0523 0.5591,0.0523 0.19209,0 0.37862,-0.0174 0.55904,-0.0523 0.1806,-0.035 0.35502,-0.0871 0.52288,-0.1563 l -9e-5,-2e-4 c 0.17065,-0.071 0.32935,-0.15382 0.47614,-0.24891 0.14694,-0.0954 0.28351,-0.20369 0.4089,-0.32537 l 4.8e-4,-4.8e-4 v 0 c 0.12574,-0.12107 0.238,-0.25292 0.33667,-0.39506 0.0984,-0.14188 0.18441,-0.29527 0.25772,-0.46007 8.8e-4,-9.5e-4 0.003,-0.004 0.003,-0.006 0.0704,-0.16028 0.12347,-0.32689 0.15917,-0.4993 0.0362,-0.17438 0.0543,-0.35448 0.0543,-0.5402 0,-0.18567 -0.0178,-0.36578 -0.0543,-0.54014 -0.0362,-0.17462 -0.09,-0.34302 -0.16172,-0.50518 l -1.3e-4,4e-5 c -0.0735,-0.16479 -0.15917,-0.31822 -0.25773,-0.46007 -0.0987,-0.14213 -0.21096,-0.2739 -0.33666,-0.3951 l -4.7e-4,-4.8e-4 v 0 c -0.12547,-0.12164 -0.26185,-0.22994 -0.40889,-0.32532 -0.14692,-0.0952 -0.3056,-0.17809 -0.47615,-0.24896 -0.003,-8.4e-4 -0.006,-9.5e-4 -0.006,-0.003 -0.1658,-0.068 -0.33823,-0.11922 -0.51672,-0.15382 -0.18034,-0.035 -0.36682,-0.0524 -0.55903,-0.0524 z m -0.60882,-0.18915 c 0.19692,-0.038 0.40004,-0.0572 0.60882,-0.0572 0.20866,0 0.41181,0.019 0.60885,0.0572 0.19438,0.0375 0.38326,0.094 0.56668,0.16927 0.003,8.4e-4 0.006,9.5e-4 0.009,0.003 0.18288,0.076 0.35532,0.16626 0.51699,0.27109 0.16121,0.1045 0.31027,0.22292 0.44728,0.35566 l 4.9e-4,4.7e-4 c 0.13721,0.13225 0.25994,0.27644 0.36806,0.43217 0.10831,0.15615 0.20176,0.32275 0.28056,0.4995 l -1.3e-4,4e-5 1.3e-4,4.3e-4 c 0.0793,0.17918 0.13849,0.36383 0.17779,0.55369 0.0395,0.1904 0.0592,0.38652 0.0592,0.58828 0,0.20174 -0.0204,0.39795 -0.0592,0.58826 -0.0391,0.18772 -0.0974,0.37029 -0.17525,0.54753 -8.8e-4,0.003 -9.5e-4,0.004 -0.003,0.007 -0.0786,0.17671 -0.17193,0.34326 -0.28056,0.4995 -0.10818,0.15567 -0.23085,0.29976 -0.36805,0.43217 l -5.1e-4,4.6e-4 c -0.13693,0.13268 -0.2861,0.25117 -0.44725,0.35568 -0.16174,0.10477 -0.33412,0.19506 -0.51699,0.27109 l -1.2e-4,-1.9e-4 -4.3e-4,1.9e-4 c -0.18544,0.0766 -0.37652,0.1338 -0.57304,0.17188 -0.19718,0.0381 -0.40004,0.0572 -0.60885,0.0572 -0.20892,0 -0.41185,-0.019 -0.60884,-0.0572 -0.19412,-0.0377 -0.38322,-0.094 -0.56669,-0.16927 -0.003,-8.5e-4 -0.006,-9.5e-4 -0.009,-0.003 -0.18289,-0.076 -0.35533,-0.16627 -0.51698,-0.2711 -0.16119,-0.1045 -0.3103,-0.22292 -0.44722,-0.35566 l -5.1e-4,-4.7e-4 c -0.1375,-0.1324 -0.25992,-0.27649 -0.36809,-0.43216 -0.10832,-0.15621 -0.20176,-0.3228 -0.28059,-0.49951 l 2.1e-4,-9e-5 -2.1e-4,-4.9e-4 c -0.0793,-0.17915 -0.13848,-0.36376 -0.17779,-0.55369 -0.0392,-0.19038 -0.0592,-0.38656 -0.0592,-0.58835 0,-0.20171 0.0204,-0.39788 0.0592,-0.58827 0.0391,-0.18768 0.0974,-0.37025 0.17526,-0.54749 8.5e-4,-0.003 0.003,-0.004 0.003,-0.007 0.0789,-0.17675 0.17218,-0.34334 0.28059,-0.4995 0.10818,-0.15566 0.23085,-0.2998 0.36811,-0.43216 l 4.8e-4,-4.7e-4 c 0.13693,-0.13268 0.2861,-0.25117 0.44722,-0.35565 0.16174,-0.10479 0.3341,-0.19509 0.51698,-0.27111 l 10e-5,1.4e-4 3.9e-4,-1.4e-4 c 0.18543,-0.0765 0.3766,-0.13381 0.57311,-0.17179 z m 0.74049,3.65441 c -2.4e-4,0.0482 -0.0354,0.0788 -0.0803,0.0917 -0.0153,0.004 -0.034,0.007 -0.0513,0.007 -0.0178,0 -0.035,-0.003 -0.0513,-0.007 -0.0449,-0.0128 -0.0801,-0.0435 -0.0803,-0.0917 l -0.16861,-2.13094 c -5e-5,-4.9e-4 -5e-5,-9.5e-4 -5e-5,-9.5e-4 h -5e-5 c 0,-0.0521 0.0803,-0.0838 0.18342,-0.0963 0.0369,-0.004 0.0771,-0.007 0.1171,-0.007 0.04,0 0.0801,0.003 0.11709,0.007 0.10309,0.0128 0.1834,0.0441 0.1834,0.0963 0,8.5e-4 -9e-5,9.5e-4 -2e-4,0.003 z"
       id="path1-1-8"
       style="fill:#b2b2b2;fill-opacity:1;stroke-width:0.0485217" /><g
       class="cls-4"
       clip-path="url(#clippath)"
       id="g5"
       transform="matrix(0.03468547,0,0,0.03468547,7.4539449,6.0183205)"><path
         class="cls-1"
         d="m 544.66,564.48 c -29.23,2.48 -58.44,-2.97 -82.27,-15.33 L 64.5,347.45 C 39.43,334.7 25.06,315.16 25.07,293.82 25.08,272.63 39.35,253.24 64.22,240.63 L 457.3,42.01 c 16.69,-8.64 36.16,-14.11 56.33,-15.81 29.38,-2.49 58.44,2.98 81.85,15.39 l 397.64,202.33 c 24.95,12.2 39.36,31.36 39.55,52.59 0.18,21.3 -14.08,40.81 -39.13,53.53 L 600.52,548.63 c -16.4,8.67 -35.71,14.15 -55.87,15.86"
         id="path1-7" /><path
         class="cls-2"
         d="M 74.46,260.8 467.62,62.14 C 503.01,43.77 551.1,43.57 585.04,61.66 l 397.98,202.5 c 35.52,17.28 36.42,47.35 0.27,65.71 L 590.11,528.54 c -34.58,18.36 -82.66,18.55 -117.4,0.48 L 74.74,327.27 C 39.2,309.2 38.29,279.14 74.47,260.8"
         id="path2" /><polygon
         class="cls-1"
         points="295.49,169.66 183.85,224.73 184.42,362.46 296.52,418.96 "
         id="polygon2" /><path
         class="cls-1"
         d="M 631.29,389.87 630.12,107.38 C 596.2,90.09 563.79,68.06 524.38,68.22 l 1.88,455.02 c 50.44,-0.21 107.01,-39.2 146.3,-59.14 -0.09,-22.95 0.6,-51.47 -0.29,-70.45 -9.53,-23.69 -24.38,6.44 -40.98,-3.79"
         id="path3" /><path
         class="cls-1"
         d="M 505.15,179.1 503.13,70.71 C 438.6,91.53 374.14,129.76 314.41,162.49 l 0.38,92.56 c 8.88,52.21 91.63,56.59 86.31,104.91 -5.31,49.08 -54.39,-6.91 -85.88,0.35 l 0.27,66.49 165.81,83.96 c 7.88,3.92 16.57,7.07 25.26,9.42 -0.32,-77.58 -0.55,-132.99 -0.8,-194.69 -22.97,-30.76 -109.75,-57.3 -100.46,-91.38 10.1,-34.08 86.59,-26.48 99.86,-55.02"
         id="path4-4" /><path
         class="cls-1"
         d="m 787.25,185.05 -98.7,-50.23 1.33,322.08 77.85,-39.1 -0.28,-68.84 20.49,1.49 25.22,0.67 0.18,43.55 79.44,-35.14 -0.5,-121.1 -105.02,-53.39 z m 20.93,100.42 c -3.14,6.35 -11.77,10.34 -20.48,8.78 -2.36,-0.77 -4.72,-1.55 -7.08,-2.33 -11.04,-4.72 -17.4,-15.77 -14.3,-23.69 3.15,-7.15 11.79,-10.33 21.23,-8.78 1.58,0 3.93,0.76 6.34,1.53 11.04,4.71 18.19,15.78 14.28,24.49"
         id="path5" /></g></g></svg>
